<svg width="202" height="273" viewBox="0 0 202 273" fill="none" xmlns="http://www.w3.org/2000/svg">
<path d="M39.0442 271.185C24.1975 271.963 13.3064 263.673 12.3986 246.351L1.4221 36.9072C0.49581 19.2326 10.7864 9.30002 25.8098 8.51268C41.01 7.71607 52.1057 16.5278 53.032 34.2025L56.978 109.496L58.0384 109.441C67.2901 86.4475 87.7956 71.9032 114.661 70.4953C162.559 67.985 193.64 103.043 196.845 164.197C200.04 225.175 172.981 263.457 125.083 265.967C97.3334 267.422 75.5966 255.091 63.834 233.554L62.7735 233.609L63.3015 243.684C64.2 260.828 54.0676 270.398 39.0442 271.185ZM105.231 225.358C130.859 224.015 145.813 201.609 143.998 166.967C142.191 132.501 124.959 111.428 99.3307 112.771C74.2327 114.086 58.2647 137.431 60.0432 171.367C61.8402 205.655 80.1332 226.674 105.231 225.358Z" fill="#FF5248"/>
<path d="M39.0442 271.185C24.1975 271.963 13.3064 263.673 12.3986 246.351L1.4221 36.9072C0.49581 19.2326 10.7864 9.30002 25.8098 8.51268C41.01 7.71607 52.1057 16.5278 53.032 34.2025L56.978 109.496L58.0384 109.441C67.2901 86.4475 87.7956 71.9032 114.661 70.4953C162.559 67.985 193.64 103.043 196.845 164.197C200.04 225.175 172.981 263.457 125.083 265.967C97.3334 267.422 75.5966 255.091 63.834 233.554L62.7735 233.609L63.3015 243.684C64.2 260.828 54.0676 270.398 39.0442 271.185ZM105.231 225.358C130.859 224.015 145.813 201.609 143.998 166.967C142.191 132.501 124.959 111.428 99.3307 112.771C74.2327 114.086 58.2647 137.431 60.0432 171.367C61.8402 205.655 80.1332 226.674 105.231 225.358Z" fill="url(#paint0_linear_1939_27194)" fill-opacity="0.5"/>
<defs>
<linearGradient id="paint0_linear_1939_27194" x1="74.1663" y1="9.88936" x2="63.0096" y2="276.957" gradientUnits="userSpaceOnUse">
<stop stop-color="white" stop-opacity="0"/>
<stop offset="1" stop-color="white" stop-opacity="0.5"/>
</linearGradient>
</defs>
</svg>
