<svg width="100" height="207" viewBox="0 0 100 207" fill="none" xmlns="http://www.w3.org/2000/svg">
<path d="M39.4038 204.426C29.1073 203.886 22.574 197.212 23.1783 185.679L28.6321 81.6162L19.5711 81.1414C11.8831 80.7385 6.63625 75.7829 7.07514 67.4084C7.49244 59.4458 13.2429 54.7913 20.931 55.1942L29.9919 55.6691L30.6682 42.7641C32.1575 14.3458 46.707 2.03027 72.9359 3.26721C91.0578 4.21693 98.8555 10.4075 98.4094 18.9192C98.136 24.1361 95.4994 27.1642 90.3406 28.4082C88.1152 28.8422 85.767 28.9944 82.7395 28.9734C70.232 28.5933 64.8646 33.8185 64.2243 46.037L63.6271 57.4318L82.0235 58.3959C89.5743 58.7917 94.8067 64.0218 94.3894 71.9844C93.9505 80.3589 88.2144 84.7388 80.6637 84.3431L62.8164 83.4078L57.3627 187.471C56.7583 199.003 49.563 204.959 39.4038 204.426Z" fill="url(#paint0_linear_1939_27196)"/>
<path d="M39.4038 204.426C29.1073 203.886 22.574 197.212 23.1783 185.679L28.6321 81.6162L19.5711 81.1414C11.8831 80.7385 6.63625 75.7829 7.07514 67.4084C7.49244 59.4458 13.2429 54.7913 20.931 55.1942L29.9919 55.6691L30.6682 42.7641C32.1575 14.3458 46.707 2.03027 72.9359 3.26721C91.0578 4.21693 98.8555 10.4075 98.4094 18.9192C98.136 24.1361 95.4994 27.1642 90.3406 28.4082C88.1152 28.8422 85.767 28.9944 82.7395 28.9734C70.232 28.5933 64.8646 33.8185 64.2243 46.037L63.6271 57.4318L82.0235 58.3959C89.5743 58.7917 94.8067 64.0218 94.3894 71.9844C93.9505 80.3589 88.2144 84.7388 80.6637 84.3431L62.8164 83.4078L57.3627 187.471C56.7583 199.003 49.563 204.959 39.4038 204.426Z" fill="url(#paint1_linear_1939_27196)" fill-opacity="0.2"/>
<defs>
<linearGradient id="paint0_linear_1939_27196" x1="94.378" y1="5.81557" x2="37.3479" y2="203.92" gradientUnits="userSpaceOnUse">
<stop offset="0.0144231" stop-color="#BB9BFF"/>
<stop offset="0.4" stop-color="#7443DD"/>
<stop offset="1" stop-color="#452883"/>
</linearGradient>
<linearGradient id="paint1_linear_1939_27196" x1="60.9039" y1="22.8246" x2="60.9039" y2="195.916" gradientUnits="userSpaceOnUse">
<stop offset="0.3" stop-opacity="0"/>
<stop offset="1"/>
</linearGradient>
</defs>
</svg>
