<svg width="58" height="218" viewBox="0 0 58 218" fill="none" xmlns="http://www.w3.org/2000/svg">
<path d="M30.9486 48.6704C16.761 48.175 6.24009 37.4643 6.71148 23.9654C7.18768 10.3289 18.4301 0.37812 32.6177 0.87356C46.8052 1.369 57.1884 12.0749 56.7122 25.7115C56.2409 39.2103 45.1361 49.1659 30.9486 48.6704ZM25.0658 217.13C9.6386 216.592 1.00757 207.05 1.57035 190.934L5.2597 85.2852C5.81767 69.307 15.0981 60.2531 30.5253 60.7918C45.8148 61.3258 54.5788 71.0098 54.0208 86.988L50.3314 192.637C49.7687 208.753 40.3553 217.664 25.0658 217.13Z" fill="#34C759"/>
<path d="M30.9486 48.6704C16.761 48.175 6.24009 37.4643 6.71148 23.9654C7.18768 10.3289 18.4301 0.37812 32.6177 0.87356C46.8052 1.369 57.1884 12.0749 56.7122 25.7115C56.2409 39.2103 45.1361 49.1659 30.9486 48.6704ZM25.0658 217.13C9.6386 216.592 1.00757 207.05 1.57035 190.934L5.2597 85.2852C5.81767 69.307 15.0981 60.2531 30.5253 60.7918C45.8148 61.3258 54.5788 71.0098 54.0208 86.988L50.3314 192.637C49.7687 208.753 40.3553 217.664 25.0658 217.13Z" fill="url(#paint0_linear_1939_27193)" fill-opacity="0.5"/>
<defs>
<linearGradient id="paint0_linear_1939_27193" x1="25.4953" y1="13.6048" x2="-27.3824" y2="212.406" gradientUnits="userSpaceOnUse">
<stop stop-color="white" stop-opacity="0"/>
<stop offset="1" stop-color="white" stop-opacity="0.5"/>
</linearGradient>
</defs>
</svg>
