<svg width="54" height="244" viewBox="0 0 54 244" fill="none" xmlns="http://www.w3.org/2000/svg">
<path d="M25.6666 48.4846C11.6638 48.729 0.657336 38.2566 0.424027 24.8903C0.187939 11.3649 10.825 0.6739 24.8278 0.42948C38.8306 0.18506 49.8342 10.4983 50.0703 24.0237C50.3036 37.39 39.6694 48.2401 25.6666 48.4846ZM29.0718 243.569C14.5916 243.822 5.68155 234.905 5.41769 219.788L3.16792 90.8985C2.90405 75.7818 11.4947 66.3999 25.9749 66.1472C40.2959 65.8972 49.3679 74.9708 49.6318 90.0875L51.8815 218.977C52.1454 234.094 43.3928 243.319 29.0718 243.569Z" fill="#FFC700"/>
<path d="M25.6666 48.4846C11.6638 48.729 0.657336 38.2566 0.424027 24.8903C0.187939 11.3649 10.825 0.6739 24.8278 0.42948C38.8306 0.18506 49.8342 10.4983 50.0703 24.0237C50.3036 37.39 39.6694 48.2401 25.6666 48.4846ZM29.0718 243.569C14.5916 243.822 5.68155 234.905 5.41769 219.788L3.16792 90.8985C2.90405 75.7818 11.4947 66.3999 25.9749 66.1472C40.2959 65.8972 49.3679 74.9708 49.6318 90.0875L51.8815 218.977C52.1454 234.094 43.3928 243.319 29.0718 243.569Z" fill="url(#paint0_linear_1939_27195)" fill-opacity="0.5"/>
<defs>
<linearGradient id="paint0_linear_1939_27195" x1="21.3944" y1="9.05495" x2="-25.8771" y2="241.73" gradientUnits="userSpaceOnUse">
<stop stop-color="white" stop-opacity="0"/>
<stop offset="1" stop-color="white" stop-opacity="0.5"/>
</linearGradient>
</defs>
</svg>
