<svg width="238" height="266" viewBox="0 0 238 266" fill="none" xmlns="http://www.w3.org/2000/svg">
<path d="M129.712 256.368C110.054 258.088 97.6349 250.445 88.5121 230.595L5.81495 56.7C3.74092 52.1812 2.49985 47.5894 2.07717 42.7582C0.838291 28.5978 10.6549 18.0025 26.4813 16.6179C39.9754 15.4373 48.5112 20.9017 53.8712 34.198L125.236 201.363L126.402 201.261L167.444 23.758C170.429 9.89954 177.415 3.41289 190.576 2.26146C205.903 0.920557 217.229 9.49816 218.424 23.1588C218.817 27.6569 218.378 32.2278 217.106 36.8715L165.659 224.014C160.108 244.979 149.204 254.663 129.712 256.368Z" fill="#1E69FF"/>
<path d="M129.712 256.368C110.054 258.088 97.6349 250.445 88.5121 230.595L5.81495 56.7C3.74092 52.1812 2.49985 47.5894 2.07717 42.7582C0.838291 28.5978 10.6549 18.0025 26.4813 16.6179C39.9754 15.4373 48.5112 20.9017 53.8712 34.198L125.236 201.363L126.402 201.261L167.444 23.758C170.429 9.89954 177.415 3.41289 190.576 2.26146C205.903 0.920557 217.229 9.49816 218.424 23.1588C218.817 27.6569 218.378 32.2278 217.106 36.8715L165.659 224.014C160.108 244.979 149.204 254.663 129.712 256.368Z" fill="url(#paint0_linear_1939_27192)" fill-opacity="0.5"/>
<defs>
<linearGradient id="paint0_linear_1939_27192" x1="86.5497" y1="12.4862" x2="86.4417" y2="267.558" gradientUnits="userSpaceOnUse">
<stop stop-color="white" stop-opacity="0"/>
<stop offset="1" stop-color="white" stop-opacity="0.5"/>
</linearGradient>
</defs>
</svg>
