<svg width="178" height="241" viewBox="0 0 178 241" fill="none" xmlns="http://www.w3.org/2000/svg">
<path d="M44.1155 240.999C20.223 240.999 7.1618 231.76 7.1618 215.036C7.1618 203.886 14.9667 197.037 27.3908 197.037C30.0986 197.037 32.1693 197.196 34.8771 197.196C41.7263 197.196 49.8497 195.285 54.9468 187.639L56.3803 184.294L3.49828 43.3283C1.26832 37.5941 -0.00594837 31.0635 -0.00594837 26.285C-0.00594837 11.153 12.7367 0.00321161 29.4615 0.00321161C44.5934 0.00321161 52.239 6.37454 56.8582 23.2586L89.352 134.757H90.3077L122.801 22.6214C127.261 7.01168 135.703 0.00321161 150.198 0.00321161C166.445 0.00321161 177.754 10.5159 177.754 25.17C177.754 29.9485 176.321 36.9569 174.409 42.3726L126.624 175.533C109.9 222.841 86.8034 240.999 44.1155 240.999Z" fill="#FF9500"/>
<path d="M44.1155 240.999C20.223 240.999 7.1618 231.76 7.1618 215.036C7.1618 203.886 14.9667 197.037 27.3908 197.037C30.0986 197.037 32.1693 197.196 34.8771 197.196C41.7263 197.196 49.8497 195.285 54.9468 187.639L56.3803 184.294L3.49828 43.3283C1.26832 37.5941 -0.00594837 31.0635 -0.00594837 26.285C-0.00594837 11.153 12.7367 0.00321161 29.4615 0.00321161C44.5934 0.00321161 52.239 6.37454 56.8582 23.2586L89.352 134.757H90.3077L122.801 22.6214C127.261 7.01168 135.703 0.00321161 150.198 0.00321161C166.445 0.00321161 177.754 10.5159 177.754 25.17C177.754 29.9485 176.321 36.9569 174.409 42.3726L126.624 175.533C109.9 222.841 86.8034 240.999 44.1155 240.999Z" fill="url(#paint0_linear_1939_27197)" fill-opacity="0.5"/>
<defs>
<linearGradient id="paint0_linear_1939_27197" x1="82.3502" y1="-54.3421" x2="60.5925" y2="187.083" gradientUnits="userSpaceOnUse">
<stop stop-color="white" stop-opacity="0"/>
<stop offset="1" stop-color="white" stop-opacity="0.5"/>
</linearGradient>
</defs>
</svg>
